<svg width="20" height="20" viewBox="0 0 20 20" fill="none" xmlns="http://www.w3.org/2000/svg">
<rect x="2.5" y="5" width="15" height="12.5" rx="1.66667" stroke="white" stroke-width="0.833333"/>
<path d="M2.5 8.33333C2.5 6.76198 2.5 5.97631 2.98816 5.48816C3.47631 5 4.26198 5 5.83333 5H14.1667C15.738 5 16.5237 5 17.0118 5.48816C17.5 5.97631 17.5 6.76198 17.5 8.33333H2.5Z" fill="white"/>
<path d="M5.83301 2.5L5.83301 5" stroke="white" stroke-width="0.833333" stroke-linecap="round"/>
<path d="M14.167 2.5L14.167 5" stroke="white" stroke-width="0.833333" stroke-linecap="round"/>
<rect x="5.83301" y="10" width="3.33333" height="1.66667" rx="0.416667" fill="white"/>
<rect x="5.83301" y="13.3333" width="3.33333" height="1.66667" rx="0.416667" fill="white"/>
<rect x="10.833" y="10" width="3.33333" height="1.66667" rx="0.416667" fill="white"/>
<rect x="10.833" y="13.3333" width="3.33333" height="1.66667" rx="0.416667" fill="white"/>
</svg>
