<svg width="20" height="20" viewBox="0 0 20 20" fill="none" xmlns="http://www.w3.org/2000/svg">
<path d="M4.16675 10.633C4.16675 9.50149 4.16675 8.93576 4.39547 8.43848C4.62418 7.94119 5.05372 7.57302 5.91279 6.83667L6.74612 6.12239C8.29889 4.79145 9.07527 4.12598 10.0001 4.12598C10.9249 4.12598 11.7013 4.79145 13.254 6.12239L14.0874 6.83667C14.9464 7.57302 15.376 7.94119 15.6047 8.43848C15.8334 8.93576 15.8334 9.50149 15.8334 10.633V14.1666C15.8334 15.738 15.8334 16.5236 15.3453 17.0118C14.8571 17.4999 14.0714 17.4999 12.5001 17.4999H7.50008C5.92873 17.4999 5.14306 17.4999 4.6549 17.0118C4.16675 16.5236 4.16675 15.738 4.16675 14.1666V10.633Z" stroke="white" stroke-width="1.66667"/>
<path d="M12.0834 17.5V13.3333C12.0834 12.8731 11.7103 12.5 11.2501 12.5H8.75008C8.28984 12.5 7.91675 12.8731 7.91675 13.3333V17.5" stroke="white" stroke-width="1.66667" stroke-linecap="round" stroke-linejoin="round"/>
</svg>
