<svg width="32" height="32" viewBox="0 0 32 32" fill="none" xmlns="http://www.w3.org/2000/svg">
<rect width="32" height="32" rx="6" fill="#FFF8CC"/>
<path d="M17.5624 4H12.0003C9.48617 4 8.22909 4 7.44804 4.78105C6.66699 5.5621 6.66699 6.81918 6.66699 9.33333V22.6667C6.66699 25.1808 6.66699 26.4379 7.44804 27.2189C8.22909 28 9.48617 28 12.0003 28H20.0003C22.5145 28 23.7716 28 24.5526 27.2189C25.3337 26.4379 25.3337 25.1808 25.3337 22.6667V11.7712C25.3337 11.2262 25.3337 10.9537 25.2322 10.7087C25.1307 10.4637 24.938 10.271 24.5526 9.88562L19.448 4.78105C19.0627 4.39567 18.87 4.20299 18.625 4.10149C18.3799 4 18.1074 4 17.5624 4Z" stroke="#FFE233" stroke-width="2.66667"/>
<path d="M12 17.3334L20 17.3334" stroke="#FFE233" stroke-width="2.66667" stroke-linecap="round"/>
<path d="M12 22.6666L17.3333 22.6666" stroke="#FFE233" stroke-width="2.66667" stroke-linecap="round"/>
<path d="M17.333 4V9.33333C17.333 10.5904 17.333 11.219 17.7235 11.6095C18.1141 12 18.7426 12 19.9997 12H25.333" stroke="#FFE233" stroke-width="2.66667"/>
</svg>
