<svg width="32" height="32" viewBox="0 0 32 32" fill="none" xmlns="http://www.w3.org/2000/svg">
<rect width="32" height="32" rx="6" fill="#FFF8CC"/>
<circle cx="16" cy="10.6666" r="3.33333" stroke="#B89E00" stroke-width="1.33333" stroke-linecap="round"/>
<path d="M18.3579 8.66663C18.6216 8.20987 19.0149 7.84157 19.4879 7.6083C19.9609 7.37503 20.4925 7.28726 21.0154 7.35611C21.5383 7.42495 22.029 7.6473 22.4256 7.99505C22.8221 8.3428 23.1066 8.80033 23.2431 9.30978C23.3796 9.81922 23.362 10.3577 23.1925 10.8571C23.0229 11.3566 22.7091 11.7945 22.2907 12.1156C21.8723 12.4366 21.368 12.6264 20.8417 12.6609C20.3154 12.6954 19.7907 12.5731 19.334 12.3094" stroke="#B89E00" stroke-width="1.33333"/>
<path d="M13.6421 8.66663C13.3784 8.20987 12.9851 7.84157 12.5121 7.6083C12.0391 7.37503 11.5075 7.28726 10.9846 7.35611C10.4617 7.42495 9.97096 7.6473 9.57443 7.99505C9.17789 8.3428 8.89339 8.80033 8.75688 9.30978C8.62038 9.81922 8.638 10.3577 8.80754 10.8571C8.97707 11.3566 9.29089 11.7945 9.70932 12.1156C10.1277 12.4366 10.632 12.6264 11.1583 12.6609C11.6846 12.6954 12.2093 12.5731 12.666 12.3094" stroke="#B89E00" stroke-width="1.33333"/>
<path d="M15.9993 16.6666C21.4397 16.6666 22.844 21.0695 23.2065 23.3426C23.3225 24.0698 22.7357 24.6666 21.9993 24.6666H9.99935C9.26297 24.6666 8.67618 24.0698 8.79216 23.3426C9.15467 21.0695 10.559 16.6666 15.9993 16.6666Z" stroke="#B89E00" stroke-width="1.33333" stroke-linecap="round"/>
<path d="M20.666 15.3334V14.6667H20.666L20.666 15.3334ZM25.7285 20.5551L26.3752 20.3931L26.3752 20.3931L25.7285 20.5551ZM22.9053 22.0004L22.2649 22.1857L22.4042 22.667H22.9053V22.0004ZM17.4492 16.7816L16.9569 16.3321L16.1297 17.2381L17.3399 17.4393L17.4492 16.7816ZM20.666 15.3334V16C22.0363 16 22.9988 16.6703 23.704 17.6093C24.4233 18.5672 24.8457 19.7742 25.0818 20.717L25.7285 20.5551L26.3752 20.3931C26.1203 19.3754 25.6435 17.9716 24.7702 16.8087C23.8829 15.627 22.5596 14.6667 20.666 14.6667V15.3334ZM25.7285 20.5551L25.0818 20.717C25.1536 21.0036 24.9429 21.3337 24.5264 21.3337V22.0004V22.667C25.6875 22.667 26.6866 21.6369 26.3752 20.3931L25.7285 20.5551ZM24.5264 22.0004V21.3337H22.9053V22.0004V22.667H24.5264V22.0004ZM22.9053 22.0004L23.5457 21.8151C22.9176 19.6444 21.3584 16.7555 17.5585 16.124L17.4492 16.7816L17.3399 17.4393C20.4066 17.9489 21.7019 20.2401 22.2649 22.1857L22.9053 22.0004ZM17.4492 16.7816L17.9416 17.2311C18.6088 16.5003 19.4805 16.0001 20.6661 16L20.666 15.3334L20.666 14.6667C19.043 14.6668 17.831 15.3746 16.9569 16.3321L17.4492 16.7816Z" fill="#B89E00"/>
<path d="M11.334 15.3334V14.6667H11.334L11.334 15.3334ZM14.5508 16.7816L14.6601 17.4393L15.8703 17.238L15.0431 16.3321L14.5508 16.7816ZM9.09473 22.0004V22.667H9.59584L9.73513 22.1857L9.09473 22.0004ZM6.27246 20.5551L5.62576 20.3931L5.62576 20.3931L6.27246 20.5551ZM11.334 15.3334V16C12.5195 16 13.3912 16.5003 14.0585 17.2311L14.5508 16.7816L15.0431 16.3321C14.169 15.3748 12.9571 14.6667 11.334 14.6667V15.3334ZM14.5508 16.7816L14.4414 16.124C10.642 16.7557 9.08239 19.6444 8.45433 21.8151L9.09473 22.0004L9.73513 22.1857C10.298 20.2403 11.5937 17.9491 14.6601 17.4393L14.5508 16.7816ZM9.09473 22.0004V21.3337H7.47461V22.0004V22.667H9.09473V22.0004ZM7.47461 22.0004V21.3337C7.05807 21.3337 6.84738 21.0036 6.91916 20.717L6.27246 20.5551L5.62576 20.3931C5.31428 21.6369 6.31349 22.667 7.47461 22.667V22.0004ZM6.27246 20.5551L6.91916 20.717C7.15528 19.7742 7.57752 18.5671 8.2966 17.6093C9.00158 16.6703 9.96383 16.0001 11.334 16L11.334 15.3334L11.334 14.6667C9.44047 14.6668 8.11744 15.6272 7.23032 16.8088C6.35729 17.9717 5.88062 19.3754 5.62576 20.3931L6.27246 20.5551Z" fill="#B89E00"/>
</svg>
